STARTFONT 2.1
FONT -ibm-courier-bold-o-normal--18-180-75-75-m-98-iso8859-2
SIZE 18 75 75
FONTBOUNDINGBOX 17 20 -1 -3
COMMENT $Header: courBO18.bdf,v 1.1 96/01/22 23:45:34 peterlin Exp $
COMMENT 
COMMENT Copyright International Business Machines,Corp. 1991
COMMENT IBM Courier is a Trademark of the IBM Corporation.
COMMENT 
COMMENT Automatic rendering from Adobe Type 1 outline:
COMMENT Primoz Peterlin <primoz.peterlin@biofiz.mf.uni-lj.si>
COMMENT courbi.pfa rendered at 18.000000 points
COMMENT Checksum eb69a063
STARTPROPERTIES 3
FONT_ASCENT 16
FONT_DESCENT 3
DEFAULT_CHAR 32
ENDPROPERTIES
CHARS 191
STARTCHAR space
ENCODING 32
SWIDTH 582 0
DWIDTH 11 0
BBX 0 0 0 1
BITMAP
ENDCHAR
STARTCHAR exclam
ENCODING 33
SWIDTH 582 0
DWIDTH 11 0
BBX 5 11 4 1
BITMAP
18
38
30
30
30
30
20
60
e0
e0
c0
ENDCHAR
STARTCHAR quotedbl
ENCODING 34
SWIDTH 582 0
DWIDTH 11 0
BBX 7 6 4 6
BITMAP
6c
6c
6c
fc
d8
d8
ENDCHAR
STARTCHAR numbersign
ENCODING 35
SWIDTH 582 0
DWIDTH 11 0
BBX 11 14 2 0
BITMAP
0c40
0cc0
08c0
0880
7fe0
7fe0
1180
3100
ffc0
ffc0
2300
6200
6200
4600
ENDCHAR
STARTCHAR dollar
ENCODING 36
SWIDTH 582 0
DWIDTH 11 0
BBX 10 15 2 -1
BITMAP
0200
0400
0e80
3f80
7580
6c00
7c00
1e00
0b00
cb00
db00
fe00
bc00
3000
3000
ENDCHAR
STARTCHAR percent
ENCODING 37
SWIDTH 582 0
DWIDTH 11 0
BBX 10 12 2 1
BITMAP
3800
7c00
cc00
cc00
f8c0
7fc0
ff80
ef80
0cc0
18c0
1f80
0f00
ENDCHAR
STARTCHAR ampersand
ENCODING 38
SWIDTH 582 0
DWIDTH 11 0
BBX 9 11 2 1
BITMAP
0f00
1f00
3100
3000
3000
7980
fb00
cf00
ce00
ff00
7200
ENDCHAR
STARTCHAR quoteright
ENCODING 39
SWIDTH 582 0
DWIDTH 11 0
BBX 6 5 4 7
BITMAP
38
38
70
60
e0
ENDCHAR
STARTCHAR parenleft
ENCODING 40
SWIDTH 582 0
DWIDTH 11 0
BBX 6 14 6 -1
BITMAP
08
18
30
60
60
40
c0
c0
c0
c0
c0
c0
40
60
ENDCHAR
STARTCHAR parenright
ENCODING 41
SWIDTH 582 0
DWIDTH 11 0
BBX 6 14 2 -1
BITMAP
18
18
0c
0c
0c
0c
0c
08
18
18
30
20
60
c0
ENDCHAR
STARTCHAR asterisk
ENCODING 42
SWIDTH 582 0
DWIDTH 11 0
BBX 8 7 3 5
BITMAP
0c
18
7f
ff
38
6c
6c
ENDCHAR
STARTCHAR plus
ENCODING 43
SWIDTH 582 0
DWIDTH 11 0
BBX 10 10 2 2
BITMAP
0c00
0c00
0c00
0c00
ffc0
ffc0
0c00
0c00
0c00
0c00
ENDCHAR
STARTCHAR comma
ENCODING 44
SWIDTH 582 0
DWIDTH 11 0
BBX 6 5 2 -1
BITMAP
38
38
70
60
c0
ENDCHAR
STARTCHAR minus
ENCODING 45
SWIDTH 582 0
DWIDTH 11 0
BBX 9 2 2 6
BITMAP
ff80
ff80
ENDCHAR
STARTCHAR period
ENCODING 46
SWIDTH 582 0
DWIDTH 11 0
BBX 4 3 4 1
BITMAP
70
f0
60
ENDCHAR
STARTCHAR slash
ENCODING 47
SWIDTH 582 0
DWIDTH 11 0
BBX 12 16 1 -1
BITMAP
0030
0020
0060
00c0
0080
0180
0300
0600
0400
0c00
1800
1000
3000
6000
4000
c000
ENDCHAR
STARTCHAR zero
ENCODING 48
SWIDTH 582 0
DWIDTH 11 0
BBX 8 12 3 1
BITMAP
1e
3f
73
63
63
c3
c3
c6
c6
cc
fc
70
ENDCHAR
STARTCHAR one
ENCODING 49
SWIDTH 582 0
DWIDTH 11 0
BBX 8 12 2 1
BITMAP
06
3e
36
04
04
0c
0c
08
08
08
ff
ff
ENDCHAR
STARTCHAR two
ENCODING 50
SWIDTH 582 0
DWIDTH 11 0
BBX 10 12 1 1
BITMAP
0f80
1fc0
10c0
00c0
00c0
0180
0300
0e00
1c00
3180
ff00
ff00
ENDCHAR
STARTCHAR three
ENCODING 51
SWIDTH 582 0
DWIDTH 11 0
BBX 10 12 1 1
BITMAP
0f00
1fc0
10c0
00c0
0180
0f00
0f80
0180
0180
0380
ff00
3c00
ENDCHAR
STARTCHAR four
ENCODING 52
SWIDTH 582 0
DWIDTH 11 0
BBX 9 12 2 1
BITMAP
0180
0380
0700
0b00
1b00
3300
6600
ff80
7f80
0600
3f00
3f00
ENDCHAR
STARTCHAR five
ENCODING 53
SWIDTH 582 0
DWIDTH 11 0
BBX 10 12 1 1
BITMAP
1fc0
1fc0
1800
1000
1f00
3f80
1180
0180
0180
0300
7f00
3e00
ENDCHAR
STARTCHAR six
ENCODING 54
SWIDTH 582 0
DWIDTH 11 0
BBX 10 12 2 1
BITMAP
07c0
0fc0
1800
3000
7e00
7e00
f300
e300
c300
c700
7e00
3c00
ENDCHAR
STARTCHAR seven
ENCODING 55
SWIDTH 582 0
DWIDTH 11 0
BBX 9 12 4 1
BITMAP
7f80
ff80
c300
0300
0600
0c00
0c00
1800
3800
3000
6000
6000
ENDCHAR
STARTCHAR eight
ENCODING 56
SWIDTH 582 0
DWIDTH 11 0
BBX 9 12 2 1
BITMAP
0f00
1f80
3180
3180
3300
1e00
3f00
6300
c300
c300
fe00
3c00
ENDCHAR
STARTCHAR nine
ENCODING 57
SWIDTH 582 0
DWIDTH 11 0
BBX 9 12 2 1
BITMAP
0f00
3f00
3180
6180
6180
6380
3f00
1f00
0300
0600
fc00
f000
ENDCHAR
STARTCHAR colon
ENCODING 58
SWIDTH 582 0
DWIDTH 11 0
BBX 5 8 4 1
BITMAP
38
78
30
00
00
70
f0
60
ENDCHAR
STARTCHAR semicolon
ENCODING 59
SWIDTH 582 0
DWIDTH 11 0
BBX 6 10 3 -1
BITMAP
1c
3c
18
00
00
38
70
60
e0
c0
ENDCHAR
STARTCHAR less
ENCODING 60
SWIDTH 582 0
DWIDTH 11 0
BBX 10 9 2 2
BITMAP
00c0
03c0
0f00
3c00
e000
3c00
0f00
03c0
0040
ENDCHAR
STARTCHAR equal
ENCODING 61
SWIDTH 582 0
DWIDTH 11 0
BBX 9 6 2 4
BITMAP
ff80
ff80
0000
0000
ff80
ff80
ENDCHAR
STARTCHAR greater
ENCODING 62
SWIDTH 582 0
DWIDTH 11 0
BBX 10 10 2 2
BITMAP
4000
e000
7800
1e00
0380
0780
1e00
7800
e000
4000
ENDCHAR
STARTCHAR question
ENCODING 63
SWIDTH 582 0
DWIDTH 11 0
BBX 7 11 4 1
BITMAP
7c
fe
c6
06
0c
38
20
00
e0
e0
c0
ENDCHAR
STARTCHAR at
ENCODING 64
SWIDTH 582 0
DWIDTH 11 0
BBX 12 11 1 1
BITMAP
0fc0
3fe0
7fb0
6fb0
ed30
db70
dee0
df80
4000
7fc0
3f00
ENDCHAR
STARTCHAR A
ENCODING 65
SWIDTH 582 0
DWIDTH 11 0
BBX 12 11 0 1
BITMAP
0f80
0f80
03c0
06c0
04c0
0cc0
1fc0
1fe0
3060
f9f0
f9f0
ENDCHAR
STARTCHAR B
ENCODING 66
SWIDTH 582 0
DWIDTH 11 0
BBX 11 11 1 1
BITMAP
3fc0
3fe0
1860
10e0
3f80
3fc0
30c0
20c0
20c0
ff80
ff00
ENDCHAR
STARTCHAR C
ENCODING 67
SWIDTH 582 0
DWIDTH 11 0
BBX 11 11 2 1
BITMAP
0f40
3fe0
70c0
60c0
c000
c000
c000
c000
e080
7f80
3f00
ENDCHAR
STARTCHAR D
ENCODING 68
SWIDTH 582 0
DWIDTH 11 0
BBX 12 11 0 1
BITMAP
1fc0
3fe0
0830
1830
1830
1830
1020
3060
30c0
7fc0
ff00
ENDCHAR
STARTCHAR E
ENCODING 69
SWIDTH 582 0
DWIDTH 11 0
BBX 12 11 1 1
BITMAP
3ff0
3ff0
1830
1920
1fa0
1f80
1100
3140
30c0
ffc0
ffc0
ENDCHAR
STARTCHAR F
ENCODING 70
SWIDTH 582 0
DWIDTH 11 0
BBX 12 11 1 1
BITMAP
3ff0
3ff0
1830
1930
1fa0
1f80
3100
3000
3000
fc00
fc00
ENDCHAR
STARTCHAR G
ENCODING 71
SWIDTH 582 0
DWIDTH 11 0
BBX 12 11 1 1
BITMAP
07a0
1fe0
3860
7060
6000
c000
c3e0
c3e0
c0c0
7fc0
3f00
ENDCHAR
STARTCHAR H
ENCODING 72
SWIDTH 582 0
DWIDTH 11 0
BBX 13 11 0 1
BITMAP
3ef8
3ef8
1860
1860
1fe0
1fc0
30c0
30c0
30c0
fbe0
fbe0
ENDCHAR
STARTCHAR I
ENCODING 73
SWIDTH 582 0
DWIDTH 11 0
BBX 10 11 2 1
BITMAP
3fc0
3fc0
0400
0400
0c00
0c00
0800
0800
0800
ff00
ff00
ENDCHAR
STARTCHAR J
ENCODING 74
SWIDTH 582 0
DWIDTH 11 0
BBX 12 11 1 1
BITMAP
07f0
0ff0
0080
0180
0180
4100
4100
c100
c300
fe00
3c00
ENDCHAR
STARTCHAR K
ENCODING 75
SWIDTH 582 0
DWIDTH 11 0
BBX 12 11 1 1
BITMAP
3ef0
3cf0
19c0
1b00
1e00
1e00
3600
3300
3100
f9e0
f9c0
ENDCHAR
STARTCHAR L
ENCODING 76
SWIDTH 582 0
DWIDTH 11 0
BBX 11 11 1 1
BITMAP
3f00
3f00
0800
1800
1800
1800
1060
1060
30c0
ffc0
ffc0
ENDCHAR
STARTCHAR M
ENCODING 77
SWIDTH 582 0
DWIDTH 11 0
BBX 14 11 0 1
BITMAP
3c3c
3e7c
1e70
1ef0
17b0
37b0
3330
2320
6060
f9f0
f9f0
ENDCHAR
STARTCHAR N
ENCODING 78
SWIDTH 582 0
DWIDTH 11 0
BBX 13 11 0 1
BITMAP
3cf8
3cf8
1c20
1620
1260
3260
3340
3140
21c0
f9c0
f8c0
ENDCHAR
STARTCHAR O
ENCODING 79
SWIDTH 582 0
DWIDTH 11 0
BBX 11 11 1 1
BITMAP
0780
1fc0
38e0
6060
e060
c060
c0e0
c0c0
6180
7f80
3e00
ENDCHAR
STARTCHAR P
ENCODING 80
SWIDTH 582 0
DWIDTH 11 0
BBX 11 11 1 1
BITMAP
1f80
3fe0
0860
0860
1860
1fc0
1f80
1000
3000
7e00
fc00
ENDCHAR
STARTCHAR Q
ENCODING 81
SWIDTH 582 0
DWIDTH 11 0
BBX 11 14 1 -2
BITMAP
0f80
1fc0
38e0
6060
6060
c060
c0e0
c0c0
e1c0
7f80
3e00
3c80
7f80
0380
ENDCHAR
STARTCHAR R
ENCODING 82
SWIDTH 582 0
DWIDTH 11 0
BBX 10 11 1 1
BITMAP
3f80
3fc0
18c0
10c0
3f80
3e00
3300
2300
6300
f9c0
f1c0
ENDCHAR
STARTCHAR S
ENCODING 83
SWIDTH 582 0
DWIDTH 11 0
BBX 11 11 1 1
BITMAP
0fa0
1fe0
3040
3040
3c00
1f80
01c0
60c0
61c0
ff80
df00
ENDCHAR
STARTCHAR T
ENCODING 84
SWIDTH 582 0
DWIDTH 11 0
BBX 11 11 2 1
BITMAP
7fe0
7fe0
4660
c460
cc40
0c00
0c00
0800
1800
7e00
7e00
ENDCHAR
STARTCHAR U
ENCODING 85
SWIDTH 582 0
DWIDTH 11 0
BBX 11 11 2 1
BITMAP
f9e0
fbe0
60c0
6080
6080
4180
c180
c180
c300
fe00
7c00
ENDCHAR
STARTCHAR V
ENCODING 86
SWIDTH 582 0
DWIDTH 11 0
BBX 12 11 2 1
BITMAP
f9f0
f9f0
60c0
2080
3180
3300
3300
3600
1c00
1c00
1800
ENDCHAR
STARTCHAR W
ENCODING 87
SWIDTH 582 0
DWIDTH 11 0
BBX 12 11 2 1
BITMAP
f8f0
f1f0
4460
4e40
4ec0
5e80
5780
f780
e300
e300
c300
ENDCHAR
STARTCHAR X
ENCODING 88
SWIDTH 582 0
DWIDTH 11 0
BBX 13 11 0 1
BITMAP
1e78
3ef8
0c60
07c0
0780
0700
0d80
1980
30c0
f9e0
fbe0
ENDCHAR
STARTCHAR Y
ENCODING 89
SWIDTH 582 0
DWIDTH 11 0
BBX 11 11 2 1
BITMAP
f9e0
f3e0
3180
3300
3600
1c00
1800
1800
1800
7e00
fc00
ENDCHAR
STARTCHAR Z
ENCODING 90
SWIDTH 582 0
DWIDTH 11 0
BBX 11 11 1 1
BITMAP
3fe0
3fe0
30c0
2180
0700
0e00
18c0
30c0
60c0
ff80
ff80
ENDCHAR
STARTCHAR bracketleft
ENCODING 91
SWIDTH 582 0
DWIDTH 11 0
BBX 7 15 5 -1
BITMAP
1e
1e
10
30
30
30
20
20
60
60
60
40
c0
f0
f0
ENDCHAR
STARTCHAR backslash
ENCODING 92
SWIDTH 582 0
DWIDTH 11 0
BBX 5 17 4 -2
BITMAP
c0
c0
c0
40
60
60
60
20
20
30
30
10
10
10
18
08
08
ENDCHAR
STARTCHAR bracketright
ENCODING 93
SWIDTH 582 0
DWIDTH 11 0
BBX 7 15 1 -1
BITMAP
1e
1e
06
04
0c
0c
0c
08
08
18
18
18
10
f0
f0
ENDCHAR
STARTCHAR asciicircum
ENCODING 94
SWIDTH 582 0
DWIDTH 11 0
BBX 9 8 2 4
BITMAP
1c00
1c00
3600
3600
6700
6300
6300
c180
ENDCHAR
STARTCHAR underscore
ENCODING 95
SWIDTH 582 0
DWIDTH 11 0
BBX 13 2 -1 -2
BITMAP
fff8
fff8
ENDCHAR
STARTCHAR quoteleft
ENCODING 96
SWIDTH 582 0
DWIDTH 11 0
BBX 6 5 4 7
BITMAP
1c
18
38
70
70
ENDCHAR
STARTCHAR a
ENCODING 97
SWIDTH 582 0
DWIDTH 11 0
BBX 10 9 1 1
BITMAP
1f00
3f80
2180
1f80
7f00
e100
c300
ffc0
7bc0
ENDCHAR
STARTCHAR b
ENCODING 98
SWIDTH 582 0
DWIDTH 11 0
BBX 12 12 0 1
BITMAP
3c00
3800
0800
1bc0
1fe0
1c70
1830
3030
3070
30e0
ffc0
ef00
ENDCHAR
STARTCHAR c
ENCODING 99
SWIDTH 582 0
DWIDTH 11 0
BBX 10 9 2 1
BITMAP
1e80
3f80
7180
e180
c000
c000
c100
7f80
3e00
ENDCHAR
STARTCHAR d
ENCODING 100
SWIDTH 582 0
DWIDTH 11 0
BBX 11 12 1 1
BITMAP
03c0
03e0
0060
0f60
3fc0
71c0
60c0
c0c0
c180
c380
7fc0
3dc0
ENDCHAR
STARTCHAR e
ENCODING 101
SWIDTH 582 0
DWIDTH 11 0
BBX 10 9 2 1
BITMAP
1f00
3f80
61c0
ffc0
ffc0
c000
e080
7f80
3e00
ENDCHAR
STARTCHAR f
ENCODING 102
SWIDTH 582 0
DWIDTH 11 0
BBX 11 12 1 1
BITMAP
0380
0fc0
0c00
3f80
7f80
1800
1800
1800
1000
3000
fe00
fe00
ENDCHAR
STARTCHAR g
ENCODING 103
SWIDTH 582 0
DWIDTH 11 0
BBX 11 12 1 -2
BITMAP
0ee0
3fe0
7180
e180
c180
c180
e380
7f00
3f00
0300
7e00
7c00
ENDCHAR
STARTCHAR h
ENCODING 104
SWIDTH 582 0
DWIDTH 11 0
BBX 11 12 0 1
BITMAP
1c00
3c00
0c00
0bc0
0fe0
1c60
1860
1860
10c0
30c0
7be0
fbe0
ENDCHAR
STARTCHAR i
ENCODING 105
SWIDTH 582 0
DWIDTH 11 0
BBX 8 14 2 1
BITMAP
03
06
06
00
00
3c
3c
0c
0c
08
08
08
ff
ff
ENDCHAR
STARTCHAR j
ENCODING 106
SWIDTH 582 0
DWIDTH 11 0
BBX 11 17 0 -2
BITMAP
0060
00c0
00c0
0000
0000
1f80
3f80
0180
0180
0180
0300
0300
0300
0300
0600
7e00
7800
ENDCHAR
STARTCHAR k
ENCODING 107
SWIDTH 582 0
DWIDTH 11 0
BBX 11 12 0 1
BITMAP
3800
3800
1800
1be0
1be0
1b00
1e00
3c00
3600
3300
e3c0
e3c0
ENDCHAR
STARTCHAR l
ENCODING 108
SWIDTH 582 0
DWIDTH 11 0
BBX 8 12 2 1
BITMAP
1e
3e
04
04
04
0c
0c
08
08
08
ff
ff
ENDCHAR
STARTCHAR m
ENCODING 109
SWIDTH 582 0
DWIDTH 11 0
BBX 12 9 0 1
BITMAP
36e0
7ff0
3330
3330
3220
2260
6660
f770
f770
ENDCHAR
STARTCHAR n
ENCODING 110
SWIDTH 582 0
DWIDTH 11 0
BBX 11 9 0 1
BITMAP
3bc0
3fe0
1c60
1860
1060
30c0
30c0
7be0
fbe0
ENDCHAR
STARTCHAR o
ENCODING 111
SWIDTH 582 0
DWIDTH 11 0
BBX 11 9 1 1
BITMAP
0f80
3fc0
70e0
6060
c060
c0e0
e1c0
7f80
3e00
ENDCHAR
STARTCHAR p
ENCODING 112
SWIDTH 582 0
DWIDTH 11 0
BBX 13 12 -1 -2
BITMAP
1de0
1ff0
0e38
0c18
0818
1838
1c70
1fe0
1780
3000
7e00
fc00
ENDCHAR
STARTCHAR q
ENCODING 113
SWIDTH 582 0
DWIDTH 11 0
BBX 12 12 1 -2
BITMAP
0f70
3ff0
71c0
60c0
c0c0
c180
e380
7f80
3d80
0100
0fc0
0fc0
ENDCHAR
STARTCHAR r
ENCODING 114
SWIDTH 582 0
DWIDTH 11 0
BBX 11 9 1 1
BITMAP
3dc0
3fe0
0e60
1800
1800
1800
1000
ff00
fe00
ENDCHAR
STARTCHAR s
ENCODING 115
SWIDTH 582 0
DWIDTH 11 0
BBX 9 9 2 1
BITMAP
1e80
3f80
6180
6000
3f00
0780
c180
ff00
be00
ENDCHAR
STARTCHAR t
ENCODING 116
SWIDTH 582 0
DWIDTH 11 0
BBX 8 11 3 1
BITMAP
30
30
fe
fe
60
60
40
c0
c1
ff
7c
ENDCHAR
STARTCHAR u
ENCODING 117
SWIDTH 582 0
DWIDTH 11 0
BBX 9 9 2 1
BITMAP
e380
e780
6180
6100
c300
c300
c300
ff80
7b80
ENDCHAR
STARTCHAR v
ENCODING 118
SWIDTH 582 0
DWIDTH 11 0
BBX 11 9 2 1
BITMAP
f9e0
f9e0
2180
3300
3300
3600
1400
1c00
1800
ENDCHAR
STARTCHAR w
ENCODING 119
SWIDTH 582 0
DWIDTH 11 0
BBX 12 9 1 1
BITMAP
f0f0
f0f0
6660
6ec0
6ec0
7f80
7780
7300
6300
ENDCHAR
STARTCHAR x
ENCODING 120
SWIDTH 582 0
DWIDTH 11 0
BBX 12 9 0 1
BITMAP
3cf0
3cf0
0d80
0600
0700
1f80
3980
fbe0
fbe0
ENDCHAR
STARTCHAR y
ENCODING 121
SWIDTH 582 0
DWIDTH 11 0
BBX 11 12 2 -2
BITMAP
fbe0
f3c0
6180
e180
c100
c300
c700
7f00
3a00
0600
7e00
7800
ENDCHAR
STARTCHAR z
ENCODING 122
SWIDTH 582 0
DWIDTH 11 0
BBX 10 9 2 1
BITMAP
3fc0
3fc0
2380
6600
0c00
3800
7180
ff00
ff00
ENDCHAR
STARTCHAR braceleft
ENCODING 123
SWIDTH 582 0
DWIDTH 11 0
BBX 7 15 5 -1
BITMAP
0e
1c
30
30
30
30
70
e0
60
60
60
c0
c0
f0
70
ENDCHAR
STARTCHAR bar
ENCODING 124
SWIDTH 582 0
DWIDTH 11 0
BBX 2 16 6 -2
BITMAP
c0
c0
c0
c0
c0
c0
c0
c0
c0
c0
c0
c0
c0
c0
c0
c0
ENDCHAR
STARTCHAR braceright
ENCODING 125
SWIDTH 582 0
DWIDTH 11 0
BBX 6 15 2 -1
BITMAP
38
3c
0c
0c
1c
18
18
1c
38
30
30
30
30
e0
c0
ENDCHAR
STARTCHAR asciitilde
ENCODING 126
SWIDTH 582 0
DWIDTH 11 0
BBX 8 4 3 5
BITMAP
61
ff
de
40
ENDCHAR
STARTCHAR space
ENCODING 160
SWIDTH 582 0
DWIDTH 11 0
BBX 0 0 0 1
BITMAP
ENDCHAR
STARTCHAR Aogonek
ENCODING 161
SWIDTH 582 0
DWIDTH 11 0
BBX 12 14 0 -2
BITMAP
0f80
0f80
0380
0780
0cc0
08c0
1fc0
3fc0
3040
fbf0
fbe0
0380
03c0
01c0
ENDCHAR
STARTCHAR breve
ENCODING 162
SWIDTH 582 0
DWIDTH 11 0
BBX 7 4 5 10
BITMAP
c6
ce
7c
38
ENDCHAR
STARTCHAR Lslash
ENCODING 163
SWIDTH 582 0
DWIDTH 11 0
BBX 11 11 1 1
BITMAP
3f00
3f00
0880
1b80
1f00
3c00
7060
5060
30c0
ffc0
ffc0
ENDCHAR
STARTCHAR currency
ENCODING 164
SWIDTH 582 0
DWIDTH 11 0
BBX 10 9 2 2
BITMAP
4080
7fc0
3f00
6180
6180
6180
7f80
ff80
4080
ENDCHAR
STARTCHAR Lcaron
ENCODING 165
SWIDTH 582 0
DWIDTH 11 0
BBX 13 12 1 1
BITMAP
0030
3fe0
3f00
0800
1800
1800
1800
1060
1060
30c0
ffc0
ffc0
ENDCHAR
STARTCHAR Sacute
ENCODING 166
SWIDTH 582 0
DWIDTH 11 0
BBX 11 15 1 1
BITMAP
00c0
0380
0000
0000
0fa0
1fe0
3040
3040
3c00
1f80
01c0
60c0
61c0
ff80
df00
ENDCHAR
STARTCHAR section
ENCODING 167
SWIDTH 582 0
DWIDTH 11 0
BBX 10 13 2 -1
BITMAP
0f80
1f80
1880
1c00
7e00
6700
7380
3980
1f00
4e00
c600
fc00
f800
ENDCHAR
STARTCHAR dieresis
ENCODING 168
SWIDTH 582 0
DWIDTH 11 0
BBX 4 2 6 11
BITMAP
f0
f0
ENDCHAR
STARTCHAR Scaron
ENCODING 169
SWIDTH 582 0
DWIDTH 11 0
BBX 11 15 1 1
BITMAP
06c0
0380
0300
0000
0fa0
1fe0
3040
3040
3c00
1f80
01c0
60c0
61c0
ff80
df00
ENDCHAR
STARTCHAR Scedilla
ENCODING 170
SWIDTH 582 0
DWIDTH 11 0
BBX 11 15 1 -3
BITMAP
0fa0
1fe0
3040
3040
3c00
1f80
01c0
60c0
61c0
ff80
de00
0c00
0c00
3c00
1c00
ENDCHAR
STARTCHAR Tcaron
ENCODING 171
SWIDTH 582 0
DWIDTH 11 0
BBX 11 15 2 1
BITMAP
0d80
0700
0600
0000
7fe0
7fe0
4660
c460
cc40
0c00
0c00
0800
1800
7e00
7e00
ENDCHAR
STARTCHAR Zacute
ENCODING 172
SWIDTH 582 0
DWIDTH 11 0
BBX 11 15 1 1
BITMAP
00c0
0380
0000
0000
3fe0
3fe0
30c0
2180
0700
0e00
18c0
30c0
60c0
ff80
ff80
ENDCHAR
STARTCHAR hyphen
ENCODING 173
SWIDTH 582 0
DWIDTH 11 0
BBX 4 2 5 6
BITMAP
f0
f0
ENDCHAR
STARTCHAR Zcaron
ENCODING 174
SWIDTH 582 0
DWIDTH 11 0
BBX 11 15 1 1
BITMAP
06c0
0380
0300
0000
3fe0
3fe0
30c0
2180
0700
0e00
18c0
30c0
60c0
ff80
ff80
ENDCHAR
STARTCHAR Zdotaccent
ENCODING 175
SWIDTH 582 0
DWIDTH 11 0
BBX 11 15 1 1
BITMAP
0300
0300
0000
0000
3fe0
3fe0
30c0
2180
0700
0e00
18c0
30c0
60c0
ff80
ff80
ENDCHAR
STARTCHAR degree
ENCODING 176
SWIDTH 582 0
DWIDTH 11 0
BBX 6 6 4 7
BITMAP
78
fc
cc
cc
78
70
ENDCHAR
STARTCHAR aogonek
ENCODING 177
SWIDTH 582 0
DWIDTH 11 0
BBX 10 12 1 -2
BITMAP
0f00
3f80
2180
1f80
7f80
e100
c300
ffc0
7fc0
0700
0700
0300
ENDCHAR
STARTCHAR ogonek
ENCODING 178
SWIDTH 582 0
DWIDTH 11 0
BBX 4 3 3 -2
BITMAP
e0
f0
70
ENDCHAR
STARTCHAR lslash
ENCODING 179
SWIDTH 582 0
DWIDTH 11 0
BBX 9 12 2 1
BITMAP
1e00
3e00
0400
0480
0780
0e00
3c00
6800
2800
0800
ff00
ff00
ENDCHAR
STARTCHAR acute
ENCODING 180
SWIDTH 582 0
DWIDTH 11 0
BBX 5 2 6 11
BITMAP
30
e0
ENDCHAR
STARTCHAR lcaron
ENCODING 181
SWIDTH 582 0
DWIDTH 11 0
BBX 12 12 2 1
BITMAP
1e60
3fc0
0400
0400
0400
0c00
0c00
0800
0800
0800
ff00
ff00
ENDCHAR
STARTCHAR sacute
ENCODING 182
SWIDTH 582 0
DWIDTH 11 0
BBX 9 12 2 1
BITMAP
0300
0e00
0000
1e80
3f80
6180
6000
3f00
0780
c180
ff00
be00
ENDCHAR
STARTCHAR caron
ENCODING 183
SWIDTH 582 0
DWIDTH 11 0
BBX 5 3 6 10
BITMAP
d8
70
60
ENDCHAR
STARTCHAR cedilla
ENCODING 184
SWIDTH 582 0
DWIDTH 11 0
BBX 5 5 3 -3
BITMAP
30
38
38
f8
f0
ENDCHAR
STARTCHAR scaron
ENCODING 185
SWIDTH 582 0
DWIDTH 11 0
BBX 9 12 2 1
BITMAP
0d80
0700
0600
1e80
3f80
6180
6000
3f00
0780
c180
ff00
be00
ENDCHAR
STARTCHAR scedilla
ENCODING 186
SWIDTH 582 0
DWIDTH 11 0
BBX 9 13 2 -3
BITMAP
1e80
3f80
6180
6000
3f00
0780
c180
ff00
be00
1c00
1c00
7c00
3800
ENDCHAR
STARTCHAR tcaron
ENCODING 187
SWIDTH 582 0
DWIDTH 11 0
BBX 9 12 3 1
BITMAP
0300
3e00
3000
fe00
fe00
6000
6000
4000
c000
c100
ff00
7c00
ENDCHAR
STARTCHAR zacute
ENCODING 188
SWIDTH 582 0
DWIDTH 11 0
BBX 10 12 2 1
BITMAP
0300
0e00
0000
3fc0
3fc0
2380
6600
0c00
3800
7180
ff00
ff00
ENDCHAR
STARTCHAR hungarumlaut
ENCODING 189
SWIDTH 582 0
DWIDTH 11 0
BBX 8 2 4 11
BITMAP
36
48
ENDCHAR
STARTCHAR zcaron
ENCODING 190
SWIDTH 582 0
DWIDTH 11 0
BBX 10 12 2 1
BITMAP
0d80
0700
0600
3fc0
3fc0
2380
6600
0c00
3800
7180
ff00
ff00
ENDCHAR
STARTCHAR zdotaccent
ENCODING 191
SWIDTH 582 0
DWIDTH 11 0
BBX 10 12 2 1
BITMAP
0600
0600
0000
3fc0
3fc0
2380
6600
0c00
3800
7180
ff00
ff00
ENDCHAR
STARTCHAR Racute
ENCODING 192
SWIDTH 582 0
DWIDTH 11 0
BBX 11 15 1 1
BITMAP
00c0
0380
0000
0000
3f80
3fc0
18c0
10c0
3f80
3e00
3300
2300
6300
f9c0
f1c0
ENDCHAR
STARTCHAR Aacute
ENCODING 193
SWIDTH 582 0
DWIDTH 11 0
BBX 12 15 0 1
BITMAP
0060
01c0
0000
0000
0f80
0f80
03c0
06c0
04c0
0cc0
1fc0
1fe0
3060
f9f0
f9f0
ENDCHAR
STARTCHAR Acircumflex
ENCODING 194
SWIDTH 582 0
DWIDTH 11 0
BBX 12 15 0 1
BITMAP
0380
07c0
0000
0000
0f80
0f80
03c0
06c0
04c0
0cc0
1fc0
1fe0
3060
f9f0
f9f0
ENDCHAR
STARTCHAR Abreve
ENCODING 195
SWIDTH 582 0
DWIDTH 11 0
BBX 12 15 0 1
BITMAP
0c60
0fc0
0780
0000
0f80
0f80
03c0
06c0
04c0
0cc0
1fc0
1fe0
3060
f9f0
f9f0
ENDCHAR
STARTCHAR Adieresis
ENCODING 196
SWIDTH 582 0
DWIDTH 11 0
BBX 12 15 0 1
BITMAP
0360
0360
0000
0000
0f80
0f80
03c0
06c0
04c0
0cc0
1fc0
1fe0
3060
f9f0
f9f0
ENDCHAR
STARTCHAR Lacute
ENCODING 197
SWIDTH 582 0
DWIDTH 11 0
BBX 11 15 1 1
BITMAP
0600
1c00
0000
0000
3f00
3f00
0800
1800
1800
1800
1060
1060
30c0
ffc0
ffc0
ENDCHAR
STARTCHAR Cacute
ENCODING 198
SWIDTH 582 0
DWIDTH 11 0
BBX 11 15 2 1
BITMAP
0180
0700
0000
0000
0f40
3fe0
70c0
60c0
c000
c000
c000
c000
e080
7f80
3f00
ENDCHAR
STARTCHAR Ccedilla
ENCODING 199
SWIDTH 582 0
DWIDTH 11 0
BBX 11 15 2 -3
BITMAP
0f40
3fe0
70c0
60c0
c000
c000
c000
c000
e080
7f80
3e00
0800
0c00
3c00
3800
ENDCHAR
STARTCHAR Ccaron
ENCODING 200
SWIDTH 582 0
DWIDTH 11 0
BBX 11 15 2 1
BITMAP
0d80
0700
0600
0000
0f40
3fe0
70c0
60c0
c000
c000
c000
c000
e080
7f80
3f00
ENDCHAR
STARTCHAR Eacute
ENCODING 201
SWIDTH 582 0
DWIDTH 11 0
BBX 12 15 1 1
BITMAP
00c0
0380
0000
0000
3ff0
3ff0
1830
1920
1fa0
1f80
1100
3140
30c0
ffc0
ffc0
ENDCHAR
STARTCHAR Eogonek
ENCODING 202
SWIDTH 582 0
DWIDTH 11 0
BBX 12 14 1 -2
BITMAP
3ff0
3fe0
1860
1960
1f20
1f00
3300
3340
20c0
ffc0
ffc0
0700
0780
0300
ENDCHAR
STARTCHAR Edieresis
ENCODING 203
SWIDTH 582 0
DWIDTH 11 0
BBX 12 15 1 1
BITMAP
06c0
06c0
0000
0000
3ff0
3ff0
1830
1920
1fa0
1f80
1100
3140
30c0
ffc0
ffc0
ENDCHAR
STARTCHAR Ecaron
ENCODING 204
SWIDTH 582 0
DWIDTH 11 0
BBX 12 15 1 1
BITMAP
06c0
0380
0300
0000
3ff0
3ff0
1830
1920
1fa0
1f80
1100
3140
30c0
ffc0
ffc0
ENDCHAR
STARTCHAR Iacute
ENCODING 205
SWIDTH 582 0
DWIDTH 11 0
BBX 10 15 2 1
BITMAP
0180
0700
0000
0000
3fc0
3fc0
0400
0400
0c00
0c00
0800
0800
0800
ff00
ff00
ENDCHAR
STARTCHAR Icircumflex
ENCODING 206
SWIDTH 582 0
DWIDTH 11 0
BBX 10 15 2 1
BITMAP
0700
0f80
0000
0000
3fc0
3fc0
0400
0400
0c00
0c00
0800
0800
0800
ff00
ff00
ENDCHAR
STARTCHAR Dcaron
ENCODING 207
SWIDTH 582 0
DWIDTH 11 0
BBX 12 15 0 1
BITMAP
06c0
0380
0300
0000
1fc0
3fe0
0830
1830
1830
1830
1020
3060
30c0
7fc0
ff00
ENDCHAR
STARTCHAR Eth
ENCODING 208
SWIDTH 582 0
DWIDTH 11 0
BBX 12 11 0 1
BITMAP
1fc0
3fe0
0830
1830
3f30
7f30
1020
3060
30c0
7fc0
ff00
ENDCHAR
STARTCHAR Nacute
ENCODING 209
SWIDTH 582 0
DWIDTH 11 0
BBX 13 15 0 1
BITMAP
0060
01c0
0000
0000
3cf8
3cf8
1c20
1620
1260
3260
3340
3140
21c0
f9c0
f8c0
ENDCHAR
STARTCHAR Ncaron
ENCODING 210
SWIDTH 582 0
DWIDTH 11 0
BBX 13 15 0 1
BITMAP
0360
01c0
0180
0000
3cf8
3cf8
1c20
1620
1260
3260
3340
3140
21c0
f9c0
f8c0
ENDCHAR
STARTCHAR Oacute
ENCODING 211
SWIDTH 582 0
DWIDTH 11 0
BBX 11 15 1 1
BITMAP
00c0
0380
0000
0000
0780
1fc0
38e0
6060
e060
c060
c0e0
c0c0
6180
7f80
3e00
ENDCHAR
STARTCHAR Ocircumflex
ENCODING 212
SWIDTH 582 0
DWIDTH 11 0
BBX 11 15 1 1
BITMAP
0380
07c0
0000
0000
0780
1fc0
38e0
6060
e060
c060
c0e0
c0c0
6180
7f80
3e00
ENDCHAR
STARTCHAR Ohungarumlaut
ENCODING 213
SWIDTH 582 0
DWIDTH 11 0
BBX 12 15 1 1
BITMAP
0360
0480
0000
0000
0780
1fc0
38e0
6060
e060
c060
c0e0
c0c0
6180
7f80
3e00
ENDCHAR
STARTCHAR Odieresis
ENCODING 214
SWIDTH 582 0
DWIDTH 11 0
BBX 11 15 1 1
BITMAP
06c0
06c0
0000
0000
0780
1fc0
38e0
6060
e060
c060
c0e0
c0c0
6180
7f80
3e00
ENDCHAR
STARTCHAR multiply
ENCODING 215
SWIDTH 582 0
DWIDTH 11 0
BBX 8 8 3 3
BITMAP
42
e7
7e
3c
3c
7e
e7
42
ENDCHAR
STARTCHAR Rcaron
ENCODING 216
SWIDTH 582 0
DWIDTH 11 0
BBX 10 15 1 1
BITMAP
06c0
0380
0300
0000
3f80
3fc0
18c0
10c0
3f80
3e00
3300
2300
6300
f9c0
f1c0
ENDCHAR
STARTCHAR Uring
ENCODING 217
SWIDTH 582 0
DWIDTH 11 0
BBX 11 16 2 1
BITMAP
0600
0f00
0f00
0600
0000
f9e0
fbe0
60c0
6080
6080
4180
c180
c180
c300
fe00
7c00
ENDCHAR
STARTCHAR Uacute
ENCODING 218
SWIDTH 582 0
DWIDTH 11 0
BBX 11 15 2 1
BITMAP
0180
0700
0000
0000
f9e0
fbe0
60c0
6080
6080
4180
c180
c180
c300
fe00
7c00
ENDCHAR
STARTCHAR Uhungarumlaut
ENCODING 219
SWIDTH 582 0
DWIDTH 11 0
BBX 11 15 2 1
BITMAP
06c0
0900
0000
0000
f9e0
fbe0
60c0
6080
6080
4180
c180
c180
c300
fe00
7c00
ENDCHAR
STARTCHAR Udieresis
ENCODING 220
SWIDTH 582 0
DWIDTH 11 0
BBX 11 15 2 1
BITMAP
0d80
0d80
0000
0000
f9e0
fbe0
60c0
6080
6080
4180
c180
c180
c300
fe00
7c00
ENDCHAR
STARTCHAR Yacute
ENCODING 221
SWIDTH 582 0
DWIDTH 11 0
BBX 11 15 2 1
BITMAP
0180
0700
0000
0000
f9e0
f3e0
3180
3300
3600
1c00
1800
1800
1800
7e00
fc00
ENDCHAR
STARTCHAR Tcedilla
ENCODING 222
SWIDTH 582 0
DWIDTH 11 0
BBX 11 15 2 -3
BITMAP
7fe0
7fe0
4660
c460
cc40
0c00
0c00
0800
1800
7e00
7e00
1c00
1c00
7c00
3800
ENDCHAR
STARTCHAR germandbls
ENCODING 223
SWIDTH 582 0
DWIDTH 11 0
BBX 10 13 1 1
BITMAP
0700
0f80
1cc0
18c0
11c0
1780
3700
3180
30c0
20c0
61c0
ef80
ef00
ENDCHAR
STARTCHAR racute
ENCODING 224
SWIDTH 582 0
DWIDTH 11 0
BBX 11 12 1 1
BITMAP
0180
0700
0000
3dc0
3fe0
0e60
1800
1800
1800
1000
ff00
fe00
ENDCHAR
STARTCHAR aacute
ENCODING 225
SWIDTH 582 0
DWIDTH 11 0
BBX 10 12 1 1
BITMAP
0180
0700
0000
1f00
3f80
2180
1f80
7f00
e100
c300
ffc0
7bc0
ENDCHAR
STARTCHAR acircumflex
ENCODING 226
SWIDTH 582 0
DWIDTH 11 0
BBX 10 13 1 1
BITMAP
0300
0780
0d80
0000
1f00
3f80
2180
1f80
7f00
e100
c300
ffc0
7bc0
ENDCHAR
STARTCHAR abreve
ENCODING 227
SWIDTH 582 0
DWIDTH 11 0
BBX 11 13 1 1
BITMAP
0c60
0ce0
07c0
0380
1f00
3f80
2180
1f80
7f00
e100
c300
ffc0
7bc0
ENDCHAR
STARTCHAR adieresis
ENCODING 228
SWIDTH 582 0
DWIDTH 11 0
BBX 10 12 1 1
BITMAP
0780
0780
0000
1f00
3f80
2180
1f80
7f00
e100
c300
ffc0
7bc0
ENDCHAR
STARTCHAR lacute
ENCODING 229
SWIDTH 582 0
DWIDTH 11 0
BBX 9 16 2 1
BITMAP
0300
0e00
0000
0000
1e00
3e00
0400
0400
0400
0c00
0c00
0800
0800
0800
ff00
ff00
ENDCHAR
STARTCHAR cacute
ENCODING 230
SWIDTH 582 0
DWIDTH 11 0
BBX 10 12 2 1
BITMAP
0300
0e00
0000
1e80
3f80
7180
e180
c000
c000
c100
7f80
3e00
ENDCHAR
STARTCHAR ccedilla
ENCODING 231
SWIDTH 582 0
DWIDTH 11 0
BBX 10 13 2 -3
BITMAP
1e80
3f80
7180
e180
c000
c000
c100
6780
3c00
1800
1c00
7c00
3800
ENDCHAR
STARTCHAR ccaron
ENCODING 232
SWIDTH 582 0
DWIDTH 11 0
BBX 10 12 2 1
BITMAP
0d80
0700
0600
1e80
3f80
7180
e180
c000
c000
c100
7f80
3e00
ENDCHAR
STARTCHAR eacute
ENCODING 233
SWIDTH 582 0
DWIDTH 11 0
BBX 10 12 2 1
BITMAP
0300
0e00
0000
1f00
3f80
61c0
ffc0
ffc0
c000
e080
7f80
3e00
ENDCHAR
STARTCHAR eogonek
ENCODING 234
SWIDTH 582 0
DWIDTH 11 0
BBX 10 12 2 -2
BITMAP
1f00
3f80
61c0
ffc0
ffc0
c000
c080
e780
3e00
3800
3c00
1800
ENDCHAR
STARTCHAR edieresis
ENCODING 235
SWIDTH 582 0
DWIDTH 11 0
BBX 10 12 2 1
BITMAP
0f00
0f00
0000
1f00
3f80
61c0
ffc0
ffc0
c000
e080
7f80
3e00
ENDCHAR
STARTCHAR ecaron
ENCODING 236
SWIDTH 582 0
DWIDTH 11 0
BBX 10 12 2 1
BITMAP
0d80
0700
0600
1f00
3f80
61c0
ffc0
ffc0
c000
e080
7f80
3e00
ENDCHAR
STARTCHAR iacute
ENCODING 237
SWIDTH 582 0
DWIDTH 11 0
BBX 9 12 2 1
BITMAP
0300
0e00
0000
3c00
3c00
0c00
0c00
0800
0800
0800
ff00
ff00
ENDCHAR
STARTCHAR icircumflex
ENCODING 238
SWIDTH 582 0
DWIDTH 11 0
BBX 8 13 2 1
BITMAP
06
0f
1b
00
3c
3c
0c
0c
08
08
08
ff
ff
ENDCHAR
STARTCHAR dcaron
ENCODING 239
SWIDTH 582 0
DWIDTH 11 0
BBX 16 12 1 1
BITMAP
03c6
03fc
0060
0f60
3fc0
71c0
60c0
c0c0
c180
c380
7fc0
3dc0
ENDCHAR
STARTCHAR dbar
ENCODING 240
SWIDTH 582 0
DWIDTH 11 0
BBX 12 12 1 1
BITMAP
03c0
0260
0fe0
0ff0
3fc0
71c0
60c0
c080
c180
c380
7fc0
3dc0
ENDCHAR
STARTCHAR nacute
ENCODING 241
SWIDTH 582 0
DWIDTH 11 0
BBX 11 12 0 1
BITMAP
00c0
0380
0000
3bc0
3fe0
1c60
1860
1060
30c0
30c0
7be0
fbe0
ENDCHAR
STARTCHAR ncaron
ENCODING 242
SWIDTH 582 0
DWIDTH 11 0
BBX 11 12 0 1
BITMAP
0360
01c0
0180
3bc0
3fe0
1c60
1860
1060
30c0
30c0
7be0
fbe0
ENDCHAR
STARTCHAR oacute
ENCODING 243
SWIDTH 582 0
DWIDTH 11 0
BBX 11 12 1 1
BITMAP
0180
0700
0000
0f80
3fc0
70e0
6060
c060
c0e0
e1c0
7f80
3e00
ENDCHAR
STARTCHAR ocircumflex
ENCODING 244
SWIDTH 582 0
DWIDTH 11 0
BBX 11 13 1 1
BITMAP
0300
0780
0d80
0000
0f80
3fc0
70e0
6060
c060
c0e0
e1c0
7f80
3e00
ENDCHAR
STARTCHAR ohungarumlaut
ENCODING 245
SWIDTH 582 0
DWIDTH 11 0
BBX 11 12 1 1
BITMAP
06c0
0900
0000
0f80
3fc0
70e0
6060
c060
c0e0
e1c0
7f80
3e00
ENDCHAR
STARTCHAR odieresis
ENCODING 246
SWIDTH 582 0
DWIDTH 11 0
BBX 11 12 1 1
BITMAP
0780
0780
0000
0f80
3fc0
70e0
6060
c060
c0e0
e1c0
7f80
3e00
ENDCHAR
STARTCHAR divide
ENCODING 247
SWIDTH 582 0
DWIDTH 11 0
BBX 10 8 2 3
BITMAP
0c00
0c00
0000
ffc0
ffc0
0000
0c00
0c00
ENDCHAR
STARTCHAR rcaron
ENCODING 248
SWIDTH 582 0
DWIDTH 11 0
BBX 11 12 1 1
BITMAP
06c0
0380
0300
3dc0
3fe0
0e60
1800
1800
1800
1000
ff00
fe00
ENDCHAR
STARTCHAR uring
ENCODING 249
SWIDTH 582 0
DWIDTH 11 0
BBX 9 14 2 1
BITMAP
0e00
1f00
1b00
1f00
0e00
e380
e780
6180
6100
c300
c300
c300
ff80
7b80
ENDCHAR
STARTCHAR uacute
ENCODING 250
SWIDTH 582 0
DWIDTH 11 0
BBX 9 12 2 1
BITMAP
0300
0e00
0000
e380
e780
6180
6100
c300
c300
c300
ff80
7b80
ENDCHAR
STARTCHAR uhungarumlaut
ENCODING 251
SWIDTH 582 0
DWIDTH 11 0
BBX 10 12 2 1
BITMAP
0d80
1200
0000
e380
e780
6180
6100
c300
c300
c300
ff80
7b80
ENDCHAR
STARTCHAR udieresis
ENCODING 252
SWIDTH 582 0
DWIDTH 11 0
BBX 9 12 2 1
BITMAP
0f00
0f00
0000
e380
e780
6180
6100
c300
c300
c300
ff80
7b80
ENDCHAR
STARTCHAR yacute
ENCODING 253
SWIDTH 582 0
DWIDTH 11 0
BBX 11 15 2 -2
BITMAP
0300
0e00
0000
fbe0
f3c0
6180
e180
c100
c300
c700
7f00
3a00
0600
7e00
7800
ENDCHAR
STARTCHAR tcedilla
ENCODING 254
SWIDTH 582 0
DWIDTH 11 0
BBX 8 15 3 -3
BITMAP
20
30
fe
fe
60
60
40
c0
c1
ef
7c
38
18
f8
70
ENDCHAR
STARTCHAR dotaccent
ENCODING 255
SWIDTH 582 0
DWIDTH 11 0
BBX 2 2 7 11
BITMAP
c0
c0
ENDCHAR
ENDFONT
